<mxfile host="Electron" agent="Mozilla/5.0 (X11; Linux x86_64) AppleWebKit/537.36 (KHTML, like Gecko) draw.io/24.7.8 Chrome/128.0.6613.36 Electron/32.0.1 Safari/537.36" version="24.7.8">
  <diagram id="prtHgNgQTEPvFCAcTncT" name="Page-1">
    <mxGraphModel dx="1464" dy="1756" grid="1" gridSize="10" guides="1" tooltips="1" connect="1" arrows="1" fold="1" page="1" pageScale="1" pageWidth="827" pageHeight="1169" math="0" shadow="0">
      <root>
        <mxCell id="0" />
        <mxCell id="1" parent="0" />
        <mxCell id="XPnDJNlR7csZ_Emqh1rr-28" value="" style="edgeStyle=orthogonalEdgeStyle;rounded=0;orthogonalLoop=1;jettySize=auto;html=1;" edge="1" parent="1" source="XPnDJNlR7csZ_Emqh1rr-22" target="XPnDJNlR7csZ_Emqh1rr-27">
          <mxGeometry relative="1" as="geometry" />
        </mxCell>
        <mxCell id="XPnDJNlR7csZ_Emqh1rr-22" value="FuseLidar" style="swimlane;whiteSpace=wrap;html=1;" vertex="1" parent="1">
          <mxGeometry x="-620" y="-240" width="200" height="200" as="geometry" />
        </mxCell>
        <mxCell id="XPnDJNlR7csZ_Emqh1rr-27" value="RgbdMapper" style="swimlane;whiteSpace=wrap;html=1;" vertex="1" parent="1">
          <mxGeometry x="-340" y="-240" width="200" height="200" as="geometry" />
        </mxCell>
      </root>
    </mxGraphModel>
  </diagram>
</mxfile>
